<svg width="97" height="97" xmlns="http://www.w3.org/2000/svg" xmlns:xlink="http://www.w3.org/1999/xlink" xml:space="preserve" overflow="hidden"><g transform="translate(-993 -313)"><g><g><g><g><path d="M1059 329.77C1053.19 329.77 1046.92 333.43 1042 343.2 1037.08 333.432 1030.81 329.77 1025 329.77 1015.94 329.77 1008 338.67 1008 347.2 1008 368.2 1042 394.2 1042 394.2 1042 394.2 1076 368.2 1076 347.2 1076 338.671 1068.06 329.77 1059 329.77ZM1042 391.647C1036.02 386.813 1010 364.783 1010 347.2 1010.16 343.243 1011.78 339.487 1014.56 336.662 1017.23 333.679 1021 331.912 1025 331.77 1030.89 331.77 1036.15 336.034 1040.21 344.1L1042 347.644 1043.79 344.1C1047.85 336.034 1053.11 331.77 1059 331.77 1066.57 331.77 1074 339.413 1074 347.2 1074 364.783 1047.98 386.813 1042 391.647Z" stroke="#FFFFFF" stroke-width="1" stroke-linecap="butt" stroke-linejoin="miter" stroke-miterlimit="4" stroke-opacity="1" fill="#FFFFFF" fill-rule="nonzero" fill-opacity="1"/></g></g></g></g></g></svg>